HIERARCHY
ROOT Hips
{
	OFFSET	0.00	0.00	0.00
	CHANNELS 6 Xposition Yposition Zposition Zrotation Xrotation Yrotation
	JOINT LeftUpLeg
	{
		OFFSET	 0.126116	-0.014019	-0.065224
		CHANNELS 3 Zrotation Xrotation Yrotation
		JOINT LeftLeg
		{
			OFFSET	 0.000000	 0.000000	 0.569914
			CHANNELS 3 Zrotation Xrotation Yrotation
			JOINT LeftFoot
			{
				OFFSET	 0.000000	 0.000000	 0.544423
				CHANNELS 3 Zrotation Xrotation Yrotation
				JOINT LeftToeBase
				{
					OFFSET	 0.000000	 0.000000	 0.207117
					CHANNELS 3 Zrotation Xrotation Yrotation
					End Site
					{
						OFFSET	 0.000000	 0.000000	 0.207117
					}
				}
			}
		}
	}
	JOINT RightUpLeg
	{
		OFFSET	-0.124023	-0.008373	-0.065224
		CHANNELS 3 Zrotation Xrotation Yrotation
		JOINT RightLeg
		{
			OFFSET	 0.000000	 0.000000	 0.570047
			CHANNELS 3 Zrotation Xrotation Yrotation
			JOINT RightFoot
			{
				OFFSET	 0.000000	 0.000000	 0.544354
				CHANNELS 3 Zrotation Xrotation Yrotation
				JOINT RightToeBase
				{
					OFFSET	 0.000000	 0.000000	 0.207540
					CHANNELS 3 Zrotation Xrotation Yrotation
					End Site
					{
						OFFSET	 0.000000	 0.000000	 0.207540
					}
				}
			}
		}
	}
	JOINT Spine
	{
		OFFSET	 0.000184	-0.007763	 0.117403
		CHANNELS 3 Zrotation Xrotation Yrotation
		JOINT Spine1
		{
			OFFSET	 0.000000	 0.000000	 0.137269
			CHANNELS 3 Zrotation Xrotation Yrotation
			JOINT Spine2
			{
				OFFSET	 0.000000	 0.000000	 0.156879
				CHANNELS 3 Zrotation Xrotation Yrotation
				JOINT LeftShoulder
				{
					OFFSET	 0.080501	-0.002496	 0.160144
					CHANNELS 3 Zrotation Xrotation Yrotation
					JOINT LeftArm
					{
						OFFSET	 0.000000	 0.000000	 0.164363
						CHANNELS 3 Zrotation Xrotation Yrotation
						JOINT LeftForeArm
						{
							OFFSET	 0.000000	 0.000000	 0.364576
							CHANNELS 3 Zrotation Xrotation Yrotation
							JOINT LeftHand
							{
								OFFSET	 0.000000	 0.000000	 0.360812
								CHANNELS 3 Zrotation Xrotation Yrotation
								JOINT LeftHandIndex1
								{
									OFFSET	 0.000000	 0.000000	 0.086006
									CHANNELS 3 Zrotation Xrotation Yrotation
									JOINT LeftHandIndex2
									{
										OFFSET	 0.000000	 0.000000	 0.047236
										CHANNELS 3 Zrotation Xrotation Yrotation
										JOINT LeftHandIndex3
										{
											OFFSET	-0.004284	-0.000551	 0.038166
											CHANNELS 3 Zrotation Xrotation Yrotation
											End Site
											{
												OFFSET	-0.004284	-0.000551	 0.038166
											}
										}
									}
								}
							}
						}
					}
				}
				JOINT Neck
				{
					OFFSET	 0.000000	 0.000000	 0.176489
					CHANNELS 3 Zrotation Xrotation Yrotation
					JOINT Head
					{
						OFFSET	 0.000000	-0.001747	 0.077940
						CHANNELS 3 Zrotation Xrotation Yrotation
						End Site
						{
							OFFSET	 0.000000	-0.001747	 0.077940
						}
					}
				}
				JOINT RightShoulder
				{
					OFFSET	-0.080363	 0.000306	 0.159706
					CHANNELS 3 Zrotation Xrotation Yrotation
					JOINT RightArm
					{
						OFFSET	 0.000000	 0.000000	 0.164196
						CHANNELS 3 Zrotation Xrotation Yrotation
						JOINT RightForeArm
						{
							OFFSET	 0.000000	 0.000000	 0.365611
							CHANNELS 3 Zrotation Xrotation Yrotation
							JOINT RightHand
							{
								OFFSET	 0.000000	 0.000000	 0.360648
								CHANNELS 3 Zrotation Xrotation Yrotation
								JOINT RightHandIndex1
								{
									OFFSET	 0.000000	 0.000000	 0.069977
									CHANNELS 3 Zrotation Xrotation Yrotation
									JOINT RightHandIndex2
									{
										OFFSET	 0.000000	 0.000000	 0.052305
										CHANNELS 3 Zrotation Xrotation Yrotation
										JOINT RightHandIndex3
										{
											OFFSET	 0.009002	-0.000782	 0.042196
											CHANNELS 3 Zrotation Xrotation Yrotation
											End Site
											{
												OFFSET	 0.009002	-0.000782	 0.042196
											}
										}
									}
								}
							}
						}
					}
				}
			}
		}
	}
}
MOTION
Frames:    13
Frame Time: 0.03333334
 0.000292	 0.019719	 1.271098	-0.003217	 0.003239	 0.172789	 7.654704	-1.871232	 176.304900	 1.483791	-11.077870	-0.645368	-9.045959	 70.079140	 3.140675	-2.385833	 28.452760	 0.000004	-7.826108	-1.899859	-176.623600	-1.474127	-10.724330	 0.612797	 8.613235	 69.780300	-2.874770	 2.384658	 28.388730	 0.000004	-5.390796	 2.724330	 0.302346	-2.162386	 3.659905	-0.812764	 6.546721	-4.489465	 1.408468	-91.776180	 78.527450	 180.000000	 47.751270	 36.343930	-60.884650	-8.748824	 0.189457	-0.805239	-30.503680	-11.338930	-4.486841	-2.635965	 4.993658	 6.788941	-5.165319	 0.784187	 3.516649	-5.225038	 0.466231	 0.424329	-0.000002	-3.783157	-0.089647	 6.373727	 4.633443	-0.258137	 89.782100	 78.203900	 180.000000	-64.162950	 41.998010	 60.222420	 8.768357	 0.214990	 0.820366	 30.852790	-12.029760	 9.182646	 6.112037	 4.509576	-0.364401	 4.968462	 1.518543	-9.347576	 5.168945	 0.703820	 2.021906
 0.000301	 0.019740	 1.271012	-0.002875	 0.003886	 0.174192	 8.585973	-2.061579	 176.255000	 1.480911	-11.325800	-0.660190	-9.088552	 70.145490	 3.187881	-2.385833	 28.452760	 0.000004	-8.758861	-2.087820	-176.579900	-1.471317	-10.979770	 0.627754	 8.648172	 69.854150	-2.912854	 2.384658	 28.388730	 0.000004	-13.077580	 2.650121	 0.290938	-2.155818	 3.916921	-0.791480	 6.525524	-4.821538	 1.425960	-91.776210	 78.527430	-180.000000	 47.697260	 36.243620	-60.543530	-12.837000	 0.450015	-3.285718	-32.482900	-13.251580	-4.949349	-2.635965	 4.993658	 6.788941	-5.165319	 0.784187	 3.516649	-5.225038	 0.466231	 0.424329	-0.000002	-3.783157	-0.089647	 6.339661	 4.480958	-0.248297	 89.782190	 78.203890	 179.999900	-63.505780	 41.494000	 61.915270	 12.138780	 0.473786	 3.307367	 32.842320	-14.186740	 9.485347	 6.112037	 4.509576	-0.364401	 4.968462	 1.518543	-9.347576	 5.168945	 0.703820	 2.021906
 0.000309	 0.019772	 1.270961	-0.002454	 0.004628	 0.174433	 9.599577	-2.267770	 176.203100	 1.477744	-11.591620	-0.676113	-9.131211	 70.215870	 3.235355	-2.385833	 28.452760	 0.000004	-9.773848	-2.291410	-176.532200	-1.468221	-11.253310	 0.643798	 8.682416	 69.932470	-2.949980	 2.384658	 28.388730	 0.000004	-21.404440	 2.569848	 0.277494	-2.134692	 4.194838	-0.763204	 6.459745	-5.183602	 1.435186	-91.776180	 78.527420	 180.000000	 47.586510	 36.093370	-60.069450	-17.426000	 1.175175	-6.043803	-34.784480	-15.351860	-5.639810	-2.635965	 4.993658	 6.788941	-5.165319	 0.784187	 3.516649	-5.225038	 0.466231	 0.424329	-0.000002	-3.783157	-0.089647	 6.261036	 4.320973	-0.236448	 89.782240	 78.203900	 179.999900	-60.567040	 39.604750	 59.534290	 14.900240	 6.507406	 14.961860	 35.474510	-16.989370	 9.852595	 6.112037	 4.509576	-0.364401	 4.968462	 1.518543	-9.347576	 5.168945	 0.703820	 2.021906
 0.000311	 0.019817	 1.270931	-0.002083	 0.005267	 0.173472	 10.477280	-2.443063	 176.159900	 1.475041	-11.813670	-0.689437	-9.163497	 70.272840	 3.271518	-2.385833	 28.452760	 0.000004	-10.652310	-2.467129	-176.490800	-1.465509	-11.486960	 0.657527	 8.709088	 69.998950	-2.978709	 2.384658	 28.388730	 0.000004	-27.921950	 2.501137	 0.265266	-2.104588	 4.432720	-0.734797	 6.366832	-5.495979	 1.434429	-91.776220	 78.527450	-180.000000	 47.451110	 35.933080	-59.583690	-21.304640	 2.150682	-8.322745	-36.828900	-17.052230	-6.374173	-2.635965	 4.993658	 6.788941	-5.165319	 0.784187	 3.516649	-5.225038	 0.466231	 0.424329	-0.000002	-3.783157	-0.089647	 6.158263	 4.188034	-0.225399	 89.782170	 78.203890	 179.999900	-58.021020	 37.969180	 61.964360	 16.634980	 9.720945	 20.054820	 37.499230	-19.484320	 10.183840	 6.112037	 4.509576	-0.364401	 4.968462	 1.518543	-9.347576	 5.168945	 0.703820	 2.021906
 0.000311	 0.019870	 1.270763	-0.001622	 0.005983	 0.171022	 11.473620	-2.638564	 176.113100	 1.472014	-12.057160	-0.704071	-9.195056	 70.333470	 3.307173	-2.385833	 28.452760	 0.000004	-11.649080	-2.666218	-176.443500	-1.462406	-11.748980	 0.672950	 8.736010	 70.073150	-3.007507	 2.384658	 28.388730	 0.000004	-33.965930	 2.424476	 0.250988	-2.057125	 4.698153	-0.698536	 6.220953	-5.847324	 1.423193	-91.776150	 78.527430	 180.000000	 47.254500	 35.709940	-58.943240	-25.548970	 3.572297	-10.678670	-39.057300	-18.730350	-7.303864	-2.635965	 4.993658	 6.788941	-5.165319	 0.784187	 3.516649	-5.225038	 0.466231	 0.424329	-0.000002	-3.783157	-0.089647	 6.003055	 4.044007	-0.212146	 89.782100	 78.203870	 180.000000	-54.681770	 35.784680	 67.229110	 17.654500	 12.068960	 23.304510	 38.803690	-22.461320	 10.173860	 6.112037	 4.509576	-0.364401	 4.968462	 1.518543	-9.347576	 5.168945	 0.703820	 2.021906
 0.000308	 0.019914	 1.270395	-0.001209	 0.006600	 0.167663	 12.361500	-2.808430	 176.073100	 1.469390	-12.264100	-0.716529	-9.201377	 70.383750	 3.329705	-2.385833	 28.452760	 0.000004	-12.523760	-2.840851	-176.401800	-1.459656	-11.976550	 0.686368	 8.756859	 70.137350	-3.029553	 2.384658	 28.388730	 0.000004	-37.684440	 2.358635	 0.238307	-2.003811	 4.926119	-0.663566	 6.057679	-6.151338	 1.403861	-91.776150	 78.527430	 180.000000	 47.056570	 35.494710	-58.332020	-28.910830	 5.001684	-12.483410	-41.026870	-19.920430	-8.180902	-2.635965	 4.993658	 6.788941	-5.165319	 0.784187	 3.516649	-5.225038	 0.466231	 0.424329	-0.000002	-3.783157	-0.089647	 5.833505	 3.924060	-0.200025	 89.782070	 78.203920	-180.000000	-51.328400	 33.702590	 72.834710	 17.900210	 13.143690	 24.522370	 39.233850	-24.880370	 9.913345	 6.112037	 4.509576	-0.364401	 4.968462	 1.518543	-9.347576	 5.168945	 0.703820	 2.021906
 0.000300	 0.019937	 1.269768	-0.000749	 0.007245	 0.162358	 13.352510	-2.996634	 176.031000	 1.466452	-12.491270	-0.730228	-9.224095	 70.436870	 3.355048	-2.385833	 28.452760	 0.000004	-13.504120	-3.038281	-176.354800	-1.456481	-12.232500	 0.701488	 8.791558	 70.209240	-3.054574	 2.384658	 28.388730	 0.000004	-39.744130	 2.286181	 0.224102	-1.930236	 5.177187	-0.620808	 5.833034	-6.488760	 1.370805	-91.776210	 78.527470	-180.000000	 46.808210	 35.214570	-57.579540	-32.284110	 6.697190	-14.193460	-43.158860	-20.871450	-9.163388	-2.635965	 4.993658	 6.788941	-5.165319	 0.784187	 3.516649	-5.225038	 0.466231	 0.424329	-0.000002	-3.783157	-0.089647	 5.604226	 3.795773	-0.185865	 89.782190	 78.203850	 179.999900	-47.455840	 30.863870	 81.174390	 18.253570	 12.209130	 22.435600	 38.763770	-27.045350	 9.306299	 6.112037	 4.509576	-0.364401	 4.968462	 1.518543	-9.347576	 5.168945	 0.703820	 2.021906
 0.000288	 0.019906	 1.269115	-0.000355	 0.007759	 0.156516	 14.200210	-3.302309	 176.007100	 1.459907	-12.982690	-0.759949	-9.338815	 70.631200	 3.477819	-2.385833	 28.452760	 0.000004	-14.355230	-3.323895	-176.321600	-1.450665	-12.687420	 0.728435	 8.879188	 70.389490	-3.148079	 2.384658	 28.388730	 0.000004	-39.492920	 2.225633	 0.212086	-1.855335	 5.387125	-0.581450	 5.604956	-6.772919	 1.332355	-91.776170	 78.527450	 180.000000	 46.583690	 34.962090	-56.902140	-34.772490	 8.119468	-15.378790	-44.872370	-21.311580	-9.940873	-2.635965	 4.993658	 6.788941	-5.165319	 0.784187	 3.516649	-5.225038	 0.466231	 0.424329	-0.000002	-3.783157	-0.089647	 5.374654	 3.691674	-0.173349	 89.782160	 78.203890	 179.999900	-44.740720	 28.083560	 91.059530	 18.721570	 8.045800	 15.480060	 37.506340	-28.272330	 8.466081	 6.112037	 4.509576	-0.364401	 4.968462	 1.518543	-9.347576	 5.168945	 0.703820	 2.021906
 0.000267	 0.019877	 1.268199	 0.000057	 0.008262	 0.148582	 15.145280	-3.760177	 175.990400	 1.448813	-13.771080	-0.807871	-9.549343	 70.968270	 3.701966	-2.385833	 28.452760	 0.000004	-15.301610	-3.803839	-176.295100	-1.439360	-13.524800	 0.778291	 9.082939	 70.756370	-3.364581	 2.384658	 28.388730	 0.000004	-36.888130	 2.160406	 0.199046	-1.758809	 5.613577	-0.534901	 5.311804	-7.081541	 1.277941	-91.776250	 78.527450	-179.999900	 46.314720	 34.654900	-56.111580	-37.044940	 9.541505	-16.391710	-46.602680	-21.354350	-10.663390	-2.635965	 4.993658	 6.788941	-5.165319	 0.784187	 3.516649	-5.225038	 0.466231	 0.424329	-0.000002	-3.783157	-0.089647	 5.082882	 3.582601	-0.159081	 89.782100	 78.203870	 180.000000	-39.213680	 24.755520	 95.427260	 17.019110	 9.441823	 16.514900	 35.482110	-28.822300	 7.259738	 6.112037	 4.509576	-0.364401	 4.968462	 1.518543	-9.347576	 5.168945	 0.703820	 2.021906
 0.000237	 0.019894	 1.267183	 0.000422	 0.008658	 0.139271	 16.077490	-4.234046	 175.977400	 1.436464	-14.594350	-0.858264	-9.779114	 71.323590	 3.945885	-2.385833	 28.452760	 0.000004	-16.234740	-4.300998	-176.269700	-1.426742	-14.397070	 0.830601	 9.305613	 71.141630	-3.600459	 2.384658	 28.388730	 0.000004	-31.993260	 2.099409	 0.186880	-1.650863	 5.825786	-0.487013	 4.984877	-7.372759	 1.212489	-91.776170	 78.527470	 180.000000	 46.048600	 34.344440	-55.340500	-38.700770	 10.651690	-17.083680	-48.065030	-20.919580	-11.156930	-2.635965	 4.993658	 6.788941	-5.165319	 0.784187	 3.516649	-5.225038	 0.466231	 0.424329	-0.000002	-3.783157	-0.089647	 4.760768	 3.483418	-0.144861	 89.782150	 78.203870	 180.000000	-32.983310	 20.492720	 98.685760	 14.643570	 10.524300	 17.226620	 32.100880	-28.289510	 5.769008	 6.112037	 4.509576	-0.364401	 4.968462	 1.518543	-9.347576	 5.168945	 0.703820	 2.021906
 0.000217	 0.019932	 1.265851	 0.000756	 0.008957	 0.128366	 17.019760	-4.802814	 175.972000	 1.420111	-15.611400	-0.921041	-10.087960	 71.774960	 4.272557	-2.385833	 28.452760	 0.000004	-17.177810	-4.895253	-176.249100	-1.410099	-15.464800	 0.895191	 9.604500	 71.624270	-3.916077	 2.384658	 28.388730	 0.000004	-24.917120	 2.041308	 0.175343	-1.528555	 6.028384	-0.436618	 4.615399	-7.652558	 1.133932	-91.776140	 78.527430	 180.000000	 45.764310	 34.010980	-54.555370	-39.748890	 11.384890	-17.498700	-49.269660	-20.004720	-11.387160	-2.635965	 4.993658	 6.788941	-5.165319	 0.784187	 3.516649	-5.225038	 0.466231	 0.424329	-0.000002	-3.783157	-0.089647	 4.399951	 3.391488	-0.130337	 89.782130	 78.203890	 180.000000	-25.445200	 15.645050	 101.864900	 11.636250	 11.230640	 17.663420	 28.283350	-26.770960	 4.238212	 6.112037	 4.509576	-0.364401	 4.968462	 1.518543	-9.347576	 5.168945	 0.703820	 2.021906
 0.000218	 0.019983	 1.264408	 0.000998	 0.009108	 0.117570	 17.847850	-5.369946	 175.972800	 1.402220	-16.644030	-0.985427	-10.426200	 72.240650	 4.629186	-2.385833	 28.452760	 0.000004	-18.006320	-5.485850	-176.234400	-1.391948	-16.541690	 0.961015	 9.931686	 72.117620	-4.260480	 2.384658	 28.388730	 0.000004	-17.256340	 1.993749	 0.165935	-1.410362	 6.194809	-0.391071	 4.259246	-7.883754	 1.054668	-91.776120	 78.527450	 179.999900	 45.521300	 33.719170	-53.904060	-40.116330	 11.647870	-17.640040	-50.084480	-18.826740	-11.343990	-2.635965	 4.993658	 6.788941	-5.165319	 0.784187	 3.516649	-5.225038	 0.466231	 0.424329	-0.000002	-3.783157	-0.089647	 4.054752	 3.317943	-0.117498	 89.782100	 78.203900	 180.000000	-18.287150	 12.699390	 104.692000	 8.796071	 11.468230	 17.815310	 26.420670	-25.082530	 3.171689	 6.112037	 4.509576	-0.364401	 4.968462	 1.518543	-9.347576	 5.168945	 0.703820	 2.021906
 0.000180	 0.019990	 1.263174	 0.001212	 0.009152	 0.104422	 18.772480	-5.845918	 175.965100	 1.386908	-17.473370	-1.037640	-10.690110	 72.599010	 4.906759	-2.385833	 28.452760	 0.000004	-18.930190	-5.987108	-176.207600	-1.376186	-17.416050	 1.015004	 10.187930	 72.504490	-4.529179	 2.384658	 28.388730	 0.000004	-7.812459	 1.945740	 0.156511	-1.269514	 6.363451	-0.339846	 3.835738	-8.119116	 0.956756	-91.776160	 78.527430	 180.000000	 45.264630	 33.395530	-53.207550	-39.896990	 11.490170	-17.555670	-50.711570	-17.176200	-11.032920	-2.635965	 4.993658	 6.788941	-5.165319	 0.784187	 3.516649	-5.225038	 0.466231	 0.424329	-0.000002	-3.783157	-0.089647	 3.647009	 3.245314	-0.103362	 89.782090	 78.203920	-180.000000	-11.543730	 11.361190	 107.235700	 5.468238	 11.283490	 17.737460	 25.653470	-22.938010	 2.190525	 6.112037	 4.509576	-0.364401	 4.968462	 1.518543	-9.347576	 5.168945	 0.703820	 2.021906
